<mxfile host="app.diagrams.net" agent="Mozilla/5.0 (Windows NT 10.0; Win64; x64) AppleWebKit/537.36 (KHTML, like Gecko) Chrome/128.0.0.0 YaBrowser/24.10.0.0 Safari/537.36" version="24.8.6">
  <diagram name="Страница — 1" id="IqtMi52bCCeb-jUrSkYr">
    <mxGraphModel dx="664" dy="777" grid="0" gridSize="10" guides="1" tooltips="1" connect="1" arrows="1" fold="1" page="1" pageScale="1" pageWidth="827" pageHeight="1169" math="0" shadow="0">
      <root>
        <mxCell id="0" />
        <mxCell id="1" parent="0" />
        <mxCell id="VjBMBiwkj6nF564_v9z5-2" value="Выбор услуги" style="rounded=0;whiteSpace=wrap;html=1;" parent="1" vertex="1">
          <mxGeometry x="180" y="200" width="80" height="40" as="geometry" />
        </mxCell>
        <mxCell id="VjBMBiwkj6nF564_v9z5-3" value="Выбор способа оплаты" style="rounded=0;whiteSpace=wrap;html=1;" parent="1" vertex="1">
          <mxGeometry x="320" y="200" width="80" height="40" as="geometry" />
        </mxCell>
        <mxCell id="VjBMBiwkj6nF564_v9z5-7" value="" style="rounded=0;whiteSpace=wrap;html=1;" parent="1" vertex="1">
          <mxGeometry x="70" y="280" width="20" height="280" as="geometry" />
        </mxCell>
        <mxCell id="VjBMBiwkj6nF564_v9z5-10" value="" style="rounded=0;whiteSpace=wrap;html=1;" parent="1" vertex="1">
          <mxGeometry x="210" y="280" width="20" height="120" as="geometry" />
        </mxCell>
        <mxCell id="VjBMBiwkj6nF564_v9z5-12" value="" style="rounded=0;whiteSpace=wrap;html=1;" parent="1" vertex="1">
          <mxGeometry x="350" y="280" width="20" height="180" as="geometry" />
        </mxCell>
        <mxCell id="VjBMBiwkj6nF564_v9z5-23" value="" style="endArrow=none;dashed=1;html=1;rounded=0;fontSize=12;startSize=8;endSize=8;curved=1;entryX=0.5;entryY=1.058;entryDx=0;entryDy=0;entryPerimeter=0;exitX=0.5;exitY=0;exitDx=0;exitDy=0;" parent="1" source="VjBMBiwkj6nF564_v9z5-10" edge="1">
          <mxGeometry width="50" height="50" relative="1" as="geometry">
            <mxPoint x="219.76" y="280" as="sourcePoint" />
            <mxPoint x="219.76" y="242" as="targetPoint" />
          </mxGeometry>
        </mxCell>
        <mxCell id="VjBMBiwkj6nF564_v9z5-26" value="" style="endArrow=none;dashed=1;html=1;rounded=0;fontSize=12;startSize=8;endSize=8;curved=1;entryX=0.5;entryY=1.058;entryDx=0;entryDy=0;entryPerimeter=0;exitX=0.5;exitY=0;exitDx=0;exitDy=0;" parent="1" source="VjBMBiwkj6nF564_v9z5-12" edge="1">
          <mxGeometry width="50" height="50" relative="1" as="geometry">
            <mxPoint x="359.9" y="400" as="sourcePoint" />
            <mxPoint x="359.65999999999997" y="242" as="targetPoint" />
          </mxGeometry>
        </mxCell>
        <mxCell id="7FZhcnmeEdkuSMgDsyUc-2" value="Пользователь" style="shape=umlActor;verticalLabelPosition=bottom;verticalAlign=top;html=1;outlineConnect=0;" vertex="1" parent="1">
          <mxGeometry x="70" y="190" width="30" height="60" as="geometry" />
        </mxCell>
        <mxCell id="7FZhcnmeEdkuSMgDsyUc-4" value="" style="endArrow=classic;html=1;rounded=0;exitX=1.121;exitY=0.076;exitDx=0;exitDy=0;exitPerimeter=0;entryX=0.121;entryY=0.286;entryDx=0;entryDy=0;entryPerimeter=0;" edge="1" parent="1">
          <mxGeometry width="50" height="50" relative="1" as="geometry">
            <mxPoint x="90.00000000000001" y="314.96000000000004" as="sourcePoint" />
            <mxPoint x="209.99999999999997" y="314.31999999999994" as="targetPoint" />
          </mxGeometry>
        </mxCell>
        <mxCell id="7FZhcnmeEdkuSMgDsyUc-8" value="Вызывает" style="edgeLabel;html=1;align=center;verticalAlign=middle;resizable=0;points=[];" vertex="1" connectable="0" parent="7FZhcnmeEdkuSMgDsyUc-4">
          <mxGeometry x="-0.2355" y="2" relative="1" as="geometry">
            <mxPoint x="15" y="-8" as="offset" />
          </mxGeometry>
        </mxCell>
        <mxCell id="7FZhcnmeEdkuSMgDsyUc-5" value="" style="endArrow=classic;html=1;rounded=0;exitX=-0.05;exitY=0.667;exitDx=0;exitDy=0;exitPerimeter=0;entryX=1.093;entryY=0.288;entryDx=0;entryDy=0;entryPerimeter=0;" edge="1" parent="1" source="VjBMBiwkj6nF564_v9z5-10" target="VjBMBiwkj6nF564_v9z5-7">
          <mxGeometry width="50" height="50" relative="1" as="geometry">
            <mxPoint x="190" y="440" as="sourcePoint" />
            <mxPoint x="240" y="390" as="targetPoint" />
          </mxGeometry>
        </mxCell>
        <mxCell id="7FZhcnmeEdkuSMgDsyUc-9" value="Получает" style="edgeLabel;html=1;align=center;verticalAlign=middle;resizable=0;points=[];" vertex="1" connectable="0" parent="7FZhcnmeEdkuSMgDsyUc-5">
          <mxGeometry x="0.046" y="-1" relative="1" as="geometry">
            <mxPoint x="5" y="-8" as="offset" />
          </mxGeometry>
        </mxCell>
        <mxCell id="7FZhcnmeEdkuSMgDsyUc-6" style="edgeStyle=orthogonalEdgeStyle;rounded=0;orthogonalLoop=1;jettySize=auto;html=1;exitX=0.5;exitY=1;exitDx=0;exitDy=0;" edge="1" parent="1" source="VjBMBiwkj6nF564_v9z5-10" target="VjBMBiwkj6nF564_v9z5-10">
          <mxGeometry relative="1" as="geometry" />
        </mxCell>
        <mxCell id="7FZhcnmeEdkuSMgDsyUc-12" value="Выполнение услуги редакцией" style="rounded=0;whiteSpace=wrap;html=1;" vertex="1" parent="1">
          <mxGeometry x="460" y="200" width="80" height="40" as="geometry" />
        </mxCell>
        <mxCell id="7FZhcnmeEdkuSMgDsyUc-13" value="&lt;span style=&quot;color: rgba(0, 0, 0, 0); font-family: monospace; font-size: 0px; text-align: start; text-wrap: nowrap;&quot;&gt;%3CmxGraphModel%3E%3Croot%3E%3CmxCell%20id%3D%220%22%2F%3E%3CmxCell%20id%3D%221%22%20parent%3D%220%22%2F%3E%3CmxCell%20id%3D%222%22%20value%3D%22%D0%92%D1%8B%D0%BF%D0%BE%D0%BB%D0%BD%D0%B5%D0%BD%D0%B8%D0%B5%20%D1%83%D1%81%D0%BB%D1%83%D0%B3%D0%B8%20%D1%80%D0%B5%D0%B4%D0%B0%D0%BA%D1%86%D0%B8%D0%B5%D0%B9%22%20style%3D%22rounded%3D0%3BwhiteSpace%3Dwrap%3Bhtml%3D1%3B%22%20vertex%3D%221%22%20parent%3D%221%22%3E%3CmxGeometry%20x%3D%22460%22%20y%3D%22200%22%20width%3D%2280%22%20height%3D%2240%22%20as%3D%22geometry%22%2F%3E%3C%2FmxCell%3E%3C%2Froot%3E%3C%2FmxGraphModel%3E&lt;/span&gt;" style="rounded=0;whiteSpace=wrap;html=1;" vertex="1" parent="1">
          <mxGeometry x="490" y="280" width="20" height="230" as="geometry" />
        </mxCell>
        <mxCell id="7FZhcnmeEdkuSMgDsyUc-14" value="" style="endArrow=none;dashed=1;html=1;rounded=0;fontSize=12;startSize=8;endSize=8;curved=1;entryX=0.5;entryY=1.058;entryDx=0;entryDy=0;entryPerimeter=0;exitX=0.5;exitY=0;exitDx=0;exitDy=0;" edge="1" parent="1">
          <mxGeometry width="50" height="50" relative="1" as="geometry">
            <mxPoint x="500.05" y="278" as="sourcePoint" />
            <mxPoint x="499.71" y="240" as="targetPoint" />
          </mxGeometry>
        </mxCell>
        <mxCell id="7FZhcnmeEdkuSMgDsyUc-15" value="" style="endArrow=classic;html=1;rounded=0;exitX=1.121;exitY=0.076;exitDx=0;exitDy=0;exitPerimeter=0;entryX=0.121;entryY=0.286;entryDx=0;entryDy=0;entryPerimeter=0;" edge="1" parent="1">
          <mxGeometry width="50" height="50" relative="1" as="geometry">
            <mxPoint x="230" y="380.64000000000004" as="sourcePoint" />
            <mxPoint x="350" y="379.99999999999994" as="targetPoint" />
          </mxGeometry>
        </mxCell>
        <mxCell id="7FZhcnmeEdkuSMgDsyUc-16" value="Вызывает" style="edgeLabel;html=1;align=center;verticalAlign=middle;resizable=0;points=[];" vertex="1" connectable="0" parent="7FZhcnmeEdkuSMgDsyUc-15">
          <mxGeometry x="-0.2355" y="2" relative="1" as="geometry">
            <mxPoint x="15" y="-8" as="offset" />
          </mxGeometry>
        </mxCell>
        <mxCell id="7FZhcnmeEdkuSMgDsyUc-17" value="" style="endArrow=classic;html=1;rounded=0;exitX=-0.136;exitY=0.838;exitDx=0;exitDy=0;exitPerimeter=0;entryX=1.179;entryY=0.35;entryDx=0;entryDy=0;entryPerimeter=0;" edge="1" parent="1" source="VjBMBiwkj6nF564_v9z5-12">
          <mxGeometry width="50" height="50" relative="1" as="geometry">
            <mxPoint x="205" y="430" as="sourcePoint" />
            <mxPoint x="90" y="431" as="targetPoint" />
          </mxGeometry>
        </mxCell>
        <mxCell id="7FZhcnmeEdkuSMgDsyUc-18" value="Получает" style="edgeLabel;html=1;align=center;verticalAlign=middle;resizable=0;points=[];" vertex="1" connectable="0" parent="7FZhcnmeEdkuSMgDsyUc-17">
          <mxGeometry x="0.046" y="-1" relative="1" as="geometry">
            <mxPoint x="5" y="-8" as="offset" />
          </mxGeometry>
        </mxCell>
        <mxCell id="7FZhcnmeEdkuSMgDsyUc-19" value="Готовая продукция" style="rounded=0;whiteSpace=wrap;html=1;" vertex="1" parent="1">
          <mxGeometry x="600" y="200" width="80" height="40" as="geometry" />
        </mxCell>
        <mxCell id="7FZhcnmeEdkuSMgDsyUc-20" value="&lt;span style=&quot;color: rgba(0, 0, 0, 0); font-family: monospace; font-size: 0px; text-align: start; text-wrap: nowrap;&quot;&gt;%3CmxGraphModel%3E%3Croot%3E%3CmxCell%20id%3D%220%22%2F%3E%3CmxCell%20id%3D%221%22%20parent%3D%220%22%2F%3E%3CmxCell%20id%3D%222%22%20value%3D%22%D0%92%D1%8B%D0%BF%D0%BE%D0%BB%D0%BD%D0%B5%D0%BD%D0%B8%D0%B5%20%D1%83%D1%81%D0%BB%D1%83%D0%B3%D0%B8%20%D1%80%D0%B5%D0%B4%D0%B0%D0%BA%D1%86%D0%B8%D0%B5%D0%B9%22%20style%3D%22rounded%3D0%3BwhiteSpace%3Dwrap%3Bhtml%3D1%3B%22%20vertex%3D%221%22%20parent%3D%221%22%3E%3CmxGeometry%20x%3D%22460%22%20y%3D%22200%22%20width%3D%2280%22%20height%3D%2240%22%20as%3D%22geometry%22%2F%3E%3C%2FmxCell%3E%3C%2Froot%3E%3C%2FmxGraphModel%3E&lt;/span&gt;" style="rounded=0;whiteSpace=wrap;html=1;" vertex="1" parent="1">
          <mxGeometry x="630" y="280" width="20" height="280" as="geometry" />
        </mxCell>
        <mxCell id="7FZhcnmeEdkuSMgDsyUc-21" value="" style="endArrow=none;dashed=1;html=1;rounded=0;fontSize=12;startSize=8;endSize=8;curved=1;entryX=0.5;entryY=1.058;entryDx=0;entryDy=0;entryPerimeter=0;exitX=0.5;exitY=0;exitDx=0;exitDy=0;" edge="1" parent="1">
          <mxGeometry width="50" height="50" relative="1" as="geometry">
            <mxPoint x="640.05" y="278" as="sourcePoint" />
            <mxPoint x="639.71" y="240" as="targetPoint" />
          </mxGeometry>
        </mxCell>
        <mxCell id="7FZhcnmeEdkuSMgDsyUc-22" value="" style="endArrow=classic;html=1;rounded=0;exitX=1.121;exitY=0.076;exitDx=0;exitDy=0;exitPerimeter=0;entryX=0.121;entryY=0.286;entryDx=0;entryDy=0;entryPerimeter=0;" edge="1" parent="1">
          <mxGeometry width="50" height="50" relative="1" as="geometry">
            <mxPoint x="370" y="450.64000000000004" as="sourcePoint" />
            <mxPoint x="490" y="449.99999999999994" as="targetPoint" />
          </mxGeometry>
        </mxCell>
        <mxCell id="7FZhcnmeEdkuSMgDsyUc-23" value="Вызывает" style="edgeLabel;html=1;align=center;verticalAlign=middle;resizable=0;points=[];" vertex="1" connectable="0" parent="7FZhcnmeEdkuSMgDsyUc-22">
          <mxGeometry x="-0.2355" y="2" relative="1" as="geometry">
            <mxPoint x="15" y="-8" as="offset" />
          </mxGeometry>
        </mxCell>
        <mxCell id="7FZhcnmeEdkuSMgDsyUc-25" value="" style="endArrow=classic;html=1;rounded=0;exitX=1.121;exitY=0.076;exitDx=0;exitDy=0;exitPerimeter=0;entryX=0.121;entryY=0.286;entryDx=0;entryDy=0;entryPerimeter=0;" edge="1" parent="1">
          <mxGeometry width="50" height="50" relative="1" as="geometry">
            <mxPoint x="510" y="470.64000000000004" as="sourcePoint" />
            <mxPoint x="630" y="469.99999999999994" as="targetPoint" />
          </mxGeometry>
        </mxCell>
        <mxCell id="7FZhcnmeEdkuSMgDsyUc-26" value="Вызывает" style="edgeLabel;html=1;align=center;verticalAlign=middle;resizable=0;points=[];" vertex="1" connectable="0" parent="7FZhcnmeEdkuSMgDsyUc-25">
          <mxGeometry x="-0.2355" y="2" relative="1" as="geometry">
            <mxPoint x="15" y="-8" as="offset" />
          </mxGeometry>
        </mxCell>
        <mxCell id="7FZhcnmeEdkuSMgDsyUc-27" value="" style="endArrow=classic;html=1;rounded=0;exitX=0;exitY=0.929;exitDx=0;exitDy=0;exitPerimeter=0;entryX=1.179;entryY=0.35;entryDx=0;entryDy=0;entryPerimeter=0;" edge="1" parent="1" source="7FZhcnmeEdkuSMgDsyUc-20">
          <mxGeometry width="50" height="50" relative="1" as="geometry">
            <mxPoint x="347" y="540" as="sourcePoint" />
            <mxPoint x="90" y="540" as="targetPoint" />
          </mxGeometry>
        </mxCell>
        <mxCell id="7FZhcnmeEdkuSMgDsyUc-28" value="Получает" style="edgeLabel;html=1;align=center;verticalAlign=middle;resizable=0;points=[];" vertex="1" connectable="0" parent="7FZhcnmeEdkuSMgDsyUc-27">
          <mxGeometry x="0.046" y="-1" relative="1" as="geometry">
            <mxPoint x="5" y="-8" as="offset" />
          </mxGeometry>
        </mxCell>
      </root>
    </mxGraphModel>
  </diagram>
</mxfile>
